REM DIRINDEX 1\2,1\3,1\4,1\5
REM DIRNAME cjc004,folder01,folder02,folder03,folder04
TITLE ""
FILE "1Q_t_0710-0719.mp3" MP3
  TRACK 01 AUDIO
    TITLE "3:cjc004_3033"
    INDEX 01 00:00:00
  TRACK 02 AUDIO
    TITLE "0:"
    INDEX 01 00:00:64
  TRACK 03 AUDIO
    TITLE "4:cjc004_3034"
    INDEX 01 00:01:19
  TRACK 04 AUDIO
    TITLE "0:"
    INDEX 01 00:02:26
  TRACK 05 AUDIO
    TITLE "5:cjc004_3035"
    INDEX 01 00:02:53
  TRACK 06 AUDIO
    TITLE "0:"
    INDEX 01 00:07:11
  TRACK 07 AUDIO
    TITLE "3:cjc004_3036"
    INDEX 01 00:07:66
  TRACK 08 AUDIO
    TITLE "0:"
    INDEX 01 00:09:00
  TRACK 09 AUDIO
    TITLE "4:cjc004_3037"
    INDEX 01 00:09:28
  TRACK 10 AUDIO
    TITLE "0:"
    INDEX 01 00:11:19
  TRACK 11 AUDIO
    TITLE "5:cjc004_3038"
    INDEX 01 00:11:48
  TRACK 12 AUDIO
    TITLE "0:"
    INDEX 01 00:15:58
  TRACK 13 AUDIO
    TITLE "3:cjc004_3039"
    INDEX 01 00:16:38
  TRACK 14 AUDIO
    TITLE "0:"
    INDEX 01 00:17:47
  TRACK 15 AUDIO
    TITLE "4:cjc004_3040"
    INDEX 01 00:17:72
  TRACK 16 AUDIO
    TITLE "0:"
    INDEX 01 00:19:03
  TRACK 17 AUDIO
    TITLE "5:cjc004_3041"
    INDEX 01 00:19:28
  TRACK 18 AUDIO
    TITLE "0:"
    INDEX 01 00:24:27
  TRACK 19 AUDIO
    TITLE "3:cjc004_3042"
    INDEX 01 00:25:03
  TRACK 20 AUDIO
    TITLE "0:"
    INDEX 01 00:26:18
  TRACK 21 AUDIO
    TITLE "4:cjc004_3043"
    INDEX 01 00:26:48
  TRACK 22 AUDIO
    TITLE "0:"
    INDEX 01 00:28:08
  TRACK 23 AUDIO
    TITLE "5:cjc004_3044"
    INDEX 01 00:28:35
  TRACK 24 AUDIO
    TITLE "0:"
    INDEX 01 00:33:50
  TRACK 25 AUDIO
    TITLE "3:cjc004_3045"
    INDEX 01 00:34:26
  TRACK 26 AUDIO
    TITLE "0:"
    INDEX 01 00:35:45
  TRACK 27 AUDIO
    TITLE "4:cjc004_3046"
    INDEX 01 00:35:74
  TRACK 28 AUDIO
    TITLE "0:"
    INDEX 01 00:37:30
  TRACK 29 AUDIO
    TITLE "5:cjc004_3047"
    INDEX 01 00:37:57
  TRACK 30 AUDIO
    TITLE "0:"
    INDEX 01 00:42:12
  TRACK 31 AUDIO
    TITLE "3:cjc004_3048"
    INDEX 01 00:42:68
  TRACK 32 AUDIO
    TITLE "0:"
    INDEX 01 00:44:01
  TRACK 33 AUDIO
    TITLE "4:cjc004_3049"
    INDEX 01 00:44:28
  TRACK 34 AUDIO
    TITLE "0:"
    INDEX 01 00:45:33
  TRACK 35 AUDIO
    TITLE "5:cjc004_3050"
    INDEX 01 00:45:53
  TRACK 36 AUDIO
    TITLE "0:"
    INDEX 01 00:51:34
  TRACK 37 AUDIO
    TITLE "3:cjc004_3051"
    INDEX 01 00:52:10
  TRACK 38 AUDIO
    TITLE "0:"
    INDEX 01 00:53:19
  TRACK 39 AUDIO
    TITLE "4:cjc004_3052"
    INDEX 01 00:53:43
  TRACK 40 AUDIO
    TITLE "0:"
    INDEX 01 00:54:58
  TRACK 41 AUDIO
    TITLE "5:cjc004_3053"
    INDEX 01 00:55:12
  TRACK 42 AUDIO
    TITLE "0:"
    INDEX 01 01:00:51
  TRACK 43 AUDIO
    TITLE "3:cjc004_3054"
    INDEX 01 01:01:31
  TRACK 44 AUDIO
    TITLE "0:"
    INDEX 01 01:02:55
  TRACK 45 AUDIO
    TITLE "4:cjc004_3055"
    INDEX 01 01:03:10
  TRACK 46 AUDIO
    TITLE "0:"
    INDEX 01 01:05:05
  TRACK 47 AUDIO
    TITLE "5:cjc004_3056"
    INDEX 01 01:05:36
  TRACK 48 AUDIO
    TITLE "0:"
    INDEX 01 01:09:34
  TRACK 49 AUDIO
    TITLE "3:cjc004_3057"
    INDEX 01 01:10:14
  TRACK 50 AUDIO
    TITLE "0:"
    INDEX 01 01:11:25
  TRACK 51 AUDIO
    TITLE "4:cjc004_3058"
    INDEX 01 01:11:56
  TRACK 52 AUDIO
    TITLE "0:"
    INDEX 01 01:12:56
  TRACK 53 AUDIO
    TITLE "5:cjc004_3059"
    INDEX 01 01:13:08
  TRACK 54 AUDIO
    TITLE "0:"
    INDEX 01 01:17:18
  TRACK 55 AUDIO
    TITLE "3:cjc004_3060"
    INDEX 01 01:17:73
  TRACK 56 AUDIO
    TITLE "0:"
    INDEX 01 01:19:30
  TRACK 57 AUDIO
    TITLE "4:cjc004_3061"
    INDEX 01 01:19:58
  TRACK 58 AUDIO
    TITLE "0:"
    INDEX 01 01:21:02
  TRACK 59 AUDIO
    TITLE "5:cjc004_3062"
    INDEX 01 01:21:21
  TRACK 60 AUDIO
    TITLE "0:"
    INDEX 01 01:25:13
